<svg width="270.8" height="62.202" viewBox="0 0 270.8 62.202" xmlns="http://www.w3.org/2000/svg"><g id="svgGroup" stroke-linecap="round" fill-rule="evenodd" font-size="9pt" stroke="#ffffff" stroke-width="0.25mm" fill="#ffffff" style="stroke:#ffffff;stroke-width:0.25mm;fill:#ffffff"><path d="M 148.5 11.201 L 148.5 62.201 L 140.9 62.201 L 140.9 0.001 L 150.4 0.001 L 173.5 41.101 L 197.6 0.001 L 207.1 0.001 L 207.1 62.201 L 199.5 62.201 L 199.5 11.201 L 177.6 48.701 L 169.6 48.701 L 148.5 11.201 Z M 45.6 28.101 L 45.6 0.001 L 54.4 0.001 L 54.4 62.201 L 45.6 62.201 L 45.6 34.001 L 8.8 34.001 L 8.8 62.201 L 0 62.201 L 0 0.001 L 8.8 0.001 L 8.8 28.101 L 45.6 28.101 Z M 236 33.301 L 236 56.301 L 270.8 56.301 L 270.8 62.201 L 227.1 62.201 L 227.1 0.001 L 269.4 0.001 L 269.4 5.901 L 236 5.901 L 236 27.401 L 265.3 27.401 L 265.3 33.301 L 236 33.301 Z M 121.9 7.901 L 121.9 54.301 A 11.373 11.373 0 0 1 121.508 57.427 Q 120.504 60.933 116.926 61.864 A 11.639 11.639 0 0 1 114 62.201 L 81.3 62.201 A 11.373 11.373 0 0 1 78.174 61.81 Q 74.668 60.805 73.737 57.227 A 11.639 11.639 0 0 1 73.4 54.301 L 73.4 7.901 A 11.373 11.373 0 0 1 73.792 4.775 Q 74.796 1.269 78.374 0.338 A 11.639 11.639 0 0 1 81.3 0.001 L 114 0.001 A 11.373 11.373 0 0 1 117.126 0.393 Q 120.632 1.397 121.563 4.976 A 11.639 11.639 0 0 1 121.9 7.901 Z M 113.3 53.201 L 113.3 9.001 A 11.354 11.354 0 0 0 113.274 8.196 Q 113.188 7.004 112.827 6.539 A 0.941 0.941 0 0 0 112.75 6.451 A 1.271 1.271 0 0 0 112.341 6.192 Q 111.702 5.922 110.402 5.903 A 13.745 13.745 0 0 0 110.2 5.901 L 85.2 5.901 A 11.354 11.354 0 0 0 84.394 5.927 Q 83.202 6.013 82.738 6.374 A 0.941 0.941 0 0 0 82.65 6.451 A 1.271 1.271 0 0 0 82.39 6.86 Q 82.121 7.499 82.101 8.799 A 13.745 13.745 0 0 0 82.1 9.001 L 82.1 53.201 A 11.354 11.354 0 0 0 82.126 54.007 Q 82.212 55.199 82.573 55.663 A 0.941 0.941 0 0 0 82.65 55.751 A 1.271 1.271 0 0 0 83.059 56.011 Q 83.698 56.281 84.998 56.3 A 13.745 13.745 0 0 0 85.2 56.301 L 110.2 56.301 A 11.354 11.354 0 0 0 111.006 56.275 Q 112.198 56.19 112.662 55.828 A 0.941 0.941 0 0 0 112.75 55.751 A 1.271 1.271 0 0 0 113.01 55.342 Q 113.279 54.703 113.299 53.403 A 13.745 13.745 0 0 0 113.3 53.201 Z" vector-effect="non-scaling-stroke"/></g></svg>